<mxfile host="app.diagrams.net" modified="2023-11-20T11:42:46.169Z" agent="Mozilla/5.0 (Macintosh; Intel Mac OS X 10_15_7) AppleWebKit/605.1.15 (KHTML, like Gecko) Version/17.0 Safari/605.1.15" version="22.1.3" etag="JXYLlJnxqLKLAhdQBTfk" type="github">
  <diagram name="Страница — 1" id="ZCIYrdyNvkBL0DUgNx-C">
    <mxGraphModel>
      <root>
        <mxCell id="0" />
        <mxCell id="1" parent="0" />
      </root>
    </mxGraphModel>
  </diagram>
</mxfile>
